<svg width="350" height="58" viewBox="0 0 350 58" fill="none" xmlns="http://www.w3.org/2000/svg">
<path fillRule="evenodd" clipRule="evenodd" d="M50.9451 0H33.2622L21.8293 25L39.5122 25L50.9451 0ZM39.512 33L21.8291 33L33.262 58H50.945L39.512 33Z" fill="#2A53F6"/>
<path fillRule="evenodd" clipRule="evenodd" d="M24.2867 0H0V25L12.8537 25L24.2867 0ZM12.8535 33L0 33V58H24.2865L12.8535 33Z" fill="#2A53F6"/>
<path d="M73 8.40698H80.3127V25.8488H80.6609L97.6659 8.40698H107.532L88.3219 27.4186L108.809 49.5698H98.5364L80.719 29.3372H80.3127V49.5698H73V8.40698Z" fill="#11123F"/>
<path d="M127.762 45.7326H127.588C126.582 47.3217 125.305 48.4845 123.758 49.2209C122.21 49.9186 120.508 50.2674 118.65 50.2674C117.374 50.2674 116.116 50.093 114.878 49.7442C113.679 49.3953 112.595 48.8721 111.628 48.1744C110.699 47.4767 109.945 46.6047 109.364 45.5581C108.784 44.5116 108.494 43.2907 108.494 41.8953C108.494 40.3837 108.765 39.1046 109.306 38.0581C109.848 36.9729 110.564 36.0814 111.454 35.3837C112.382 34.6473 113.446 34.0659 114.646 33.6395C115.845 33.2132 117.083 32.9031 118.36 32.7093C119.676 32.4767 120.991 32.3411 122.307 32.3023C123.622 32.2248 124.86 32.186 126.021 32.186H127.762V31.4302C127.762 29.686 127.163 28.3876 125.963 27.5349C124.764 26.6434 123.235 26.1977 121.378 26.1977C119.908 26.1977 118.534 26.469 117.258 27.0116C115.981 27.5155 114.878 28.2132 113.949 29.1047L110.293 25.4419C111.841 23.8527 113.64 22.7093 115.691 22.0116C117.78 21.314 119.927 20.9651 122.133 20.9651C124.106 20.9651 125.77 21.1977 127.124 21.6628C128.478 22.0891 129.6 22.6512 130.49 23.3488C131.38 24.0465 132.057 24.8605 132.521 25.7907C133.024 26.6822 133.373 27.593 133.566 28.5233C133.798 29.4535 133.934 30.3643 133.972 31.2558C134.011 32.1085 134.03 32.8643 134.03 33.5233V49.5698H127.762V45.7326ZM127.356 37.0698H125.905C124.938 37.0698 123.854 37.1085 122.655 37.186C121.456 37.2636 120.314 37.4574 119.231 37.7674C118.186 38.0388 117.296 38.4651 116.561 39.0465C115.826 39.5891 115.458 40.3643 115.458 41.3721C115.458 42.031 115.594 42.593 115.865 43.0581C116.174 43.4845 116.561 43.8527 117.025 44.1628C117.49 44.4729 118.012 44.7054 118.592 44.8605C119.173 44.9767 119.753 45.0349 120.334 45.0349C122.732 45.0349 124.493 44.4729 125.615 43.3488C126.776 42.186 127.356 40.6163 127.356 38.6395V37.0698Z" fill="#11123F"/>
<path d="M139.492 21.6628H146.108V26.0233H146.225C146.844 24.7054 147.83 23.5426 149.184 22.5349C150.577 21.4884 152.435 20.9651 154.756 20.9651C159.128 20.9651 162.03 22.6899 163.462 26.1395C164.468 24.3566 165.725 23.0581 167.234 22.2442C168.743 21.3915 170.542 20.9651 172.632 20.9651C174.489 20.9651 176.056 21.2752 177.333 21.8953C178.609 22.5155 179.635 23.3682 180.409 24.4535C181.221 25.5388 181.801 26.8178 182.15 28.2907C182.498 29.7248 182.672 31.2752 182.672 32.9419V49.5698H175.708V33.7558C175.708 32.9031 175.63 32.0891 175.475 31.314C175.321 30.5 175.05 29.8023 174.663 29.2209C174.276 28.6008 173.754 28.1163 173.096 27.7674C172.438 27.4186 171.587 27.2442 170.542 27.2442C169.459 27.2442 168.53 27.4574 167.756 27.8837C167.021 28.2713 166.402 28.814 165.899 29.5116C165.435 30.1705 165.087 30.9457 164.855 31.8372C164.661 32.6899 164.564 33.562 164.564 34.4535V49.5698H157.6V32.9419C157.6 31.1977 157.232 29.8217 156.497 28.814C155.762 27.7674 154.543 27.2442 152.841 27.2442C151.68 27.2442 150.693 27.438 149.881 27.8256C149.107 28.2132 148.449 28.7364 147.908 29.3953C147.405 30.0543 147.037 30.8101 146.805 31.6628C146.573 32.5155 146.457 33.407 146.457 34.3372V49.5698H139.492V21.6628Z" fill="#11123F"/>
<path d="M188.657 21.6628H195.621V49.5698H188.657V21.6628ZM187.67 12.186C187.67 11.062 188.076 10.093 188.889 9.27907C189.74 8.42636 190.804 8 192.081 8C193.358 8 194.422 8.40698 195.273 9.22093C196.163 9.99612 196.608 10.9845 196.608 12.186C196.608 13.3876 196.163 14.3953 195.273 15.2093C194.422 15.9845 193.358 16.3721 192.081 16.3721C190.804 16.3721 189.74 15.9651 188.889 15.1512C188.076 14.2984 187.67 13.3101 187.67 12.186Z" fill="#11123F"/>
<path d="M201.992 7.99993H208.956V49.5698H201.992V7.99993Z" fill="#11123F"/>
<path d="M248.756 34.4535C248.756 36.9341 248.331 39.1822 247.479 41.1977C246.628 43.1744 245.467 44.8605 243.997 46.2558C242.527 47.6512 240.786 48.7364 238.774 49.5116C236.762 50.2481 234.576 50.6163 232.215 50.6163C229.855 50.6163 227.669 50.2481 225.657 49.5116C223.645 48.7364 221.885 47.6512 220.376 46.2558C218.906 44.8605 217.745 43.1744 216.894 41.1977C216.081 39.1822 215.675 36.9341 215.675 34.4535V8.40698H222.988V34.2209C222.988 35.2287 223.142 36.2946 223.452 37.4186C223.761 38.5039 224.264 39.5116 224.961 40.4419C225.696 41.3721 226.644 42.1473 227.805 42.7674C229.004 43.3488 230.474 43.6395 232.215 43.6395C233.957 43.6395 235.408 43.3488 236.568 42.7674C237.768 42.1473 238.716 41.3721 239.412 40.4419C240.147 39.5116 240.67 38.5039 240.979 37.4186C241.289 36.2946 241.443 35.2287 241.443 34.2209V8.40698H248.756V34.4535Z" fill="#11123F"/>
<path d="M270.211 29.3953C268.857 27.4961 267.039 26.5465 264.756 26.5465C263.827 26.5465 262.918 26.7791 262.028 27.2442C261.138 27.7093 260.693 28.4651 260.693 29.5116C260.693 30.3643 261.061 30.9845 261.796 31.3721C262.531 31.7597 263.46 32.0891 264.582 32.3605C265.704 32.6318 266.903 32.9225 268.18 33.2326C269.496 33.5039 270.714 33.9496 271.836 34.5698C272.958 35.1512 273.887 35.9651 274.622 37.0116C275.357 38.0581 275.725 39.4922 275.725 41.314C275.725 42.9806 275.357 44.3953 274.622 45.5581C273.926 46.6822 272.997 47.593 271.836 48.2907C270.714 48.9884 269.438 49.4922 268.006 49.8023C266.574 50.1124 265.143 50.2674 263.711 50.2674C261.544 50.2674 259.552 49.9574 257.733 49.3372C255.915 48.7171 254.29 47.593 252.858 45.9651L257.501 41.6047C258.391 42.6124 259.339 43.4457 260.345 44.1046C261.39 44.7248 262.647 45.0349 264.117 45.0349C264.62 45.0349 265.143 44.9767 265.684 44.8605C266.226 44.7442 266.729 44.5504 267.193 44.2791C267.658 44.0078 268.025 43.6783 268.296 43.2907C268.606 42.8643 268.76 42.3798 268.76 41.8372C268.76 40.8682 268.393 40.1512 267.658 39.686C266.923 39.2209 265.994 38.8527 264.872 38.5814C263.75 38.2713 262.531 38 261.216 37.7674C259.939 37.4961 258.739 37.0891 257.617 36.5465C256.495 35.9651 255.567 35.1705 254.831 34.1628C254.096 33.155 253.729 31.7597 253.729 29.9767C253.729 28.4264 254.038 27.0891 254.657 25.9651C255.315 24.8023 256.166 23.8527 257.211 23.1163C258.256 22.3798 259.455 21.8372 260.809 21.4884C262.164 21.1395 263.537 20.9651 264.93 20.9651C266.787 20.9651 268.625 21.2946 270.444 21.9535C272.262 22.5736 273.732 23.6589 274.854 25.2093L270.211 29.3953Z" fill="#11123F"/>
<path d="M294.258 29.3953C292.904 27.4961 291.086 26.5465 288.803 26.5465C287.874 26.5465 286.965 26.7791 286.075 27.2442C285.185 27.7093 284.74 28.4651 284.74 29.5116C284.74 30.3643 285.108 30.9845 285.843 31.3721C286.578 31.7597 287.507 32.0891 288.629 32.3605C289.751 32.6318 290.95 32.9225 292.227 33.2326C293.543 33.5039 294.761 33.9496 295.883 34.5698C297.005 35.1512 297.934 35.9651 298.669 37.0116C299.404 38.0581 299.772 39.4922 299.772 41.314C299.772 42.9806 299.404 44.3953 298.669 45.5581C297.973 46.6822 297.044 47.593 295.883 48.2907C294.761 48.9884 293.484 49.4922 292.053 49.8023C290.621 50.1124 289.19 50.2674 287.758 50.2674C285.591 50.2674 283.599 49.9574 281.78 49.3372C279.962 48.7171 278.337 47.593 276.905 45.9651L281.548 41.6047C282.438 42.6124 283.386 43.4457 284.392 44.1046C285.437 44.7248 286.694 45.0349 288.164 45.0349C288.667 45.0349 289.19 44.9767 289.731 44.8605C290.273 44.7442 290.776 44.5504 291.24 44.2791C291.705 44.0078 292.072 43.6783 292.343 43.2907C292.653 42.8643 292.807 42.3798 292.807 41.8372C292.807 40.8682 292.44 40.1512 291.705 39.686C290.97 39.2209 290.041 38.8527 288.919 38.5814C287.797 38.2713 286.578 38 285.263 37.7674C283.986 37.4961 282.786 37.0891 281.664 36.5465C280.542 35.9651 279.614 35.1705 278.878 34.1628C278.143 33.155 277.776 31.7597 277.776 29.9767C277.776 28.4264 278.085 27.0891 278.704 25.9651C279.362 24.8023 280.213 23.8527 281.258 23.1163C282.303 22.3798 283.502 21.8372 284.856 21.4884C286.21 21.1395 287.584 20.9651 288.977 20.9651C290.834 20.9651 292.672 21.2946 294.49 21.9535C296.309 22.5736 297.779 23.6589 298.901 25.2093L294.258 29.3953Z" fill="#11123F"/>
<path d="M320.859 45.7326H320.685C319.679 47.3217 318.402 48.4845 316.854 49.2209C315.307 49.9186 313.604 50.2674 311.747 50.2674C310.47 50.2674 309.213 50.093 307.975 49.7442C306.775 49.3953 305.692 48.8721 304.725 48.1744C303.796 47.4767 303.041 46.6047 302.461 45.5581C301.881 44.5116 301.59 43.2907 301.59 41.8953C301.59 40.3837 301.861 39.1046 302.403 38.0581C302.945 36.9729 303.661 36.0814 304.55 35.3837C305.479 34.6473 306.543 34.0659 307.742 33.6395C308.942 33.2132 310.18 32.9031 311.457 32.7093C312.772 32.4767 314.088 32.3411 315.403 32.3023C316.719 32.2248 317.957 32.186 319.118 32.186H320.859V31.4302C320.859 29.686 320.259 28.3876 319.06 27.5349C317.86 26.6434 316.332 26.1977 314.475 26.1977C313.005 26.1977 311.631 26.469 310.354 27.0116C309.077 27.5155 307.975 28.2132 307.046 29.1047L303.39 25.4419C304.937 23.8527 306.736 22.7093 308.787 22.0116C310.876 21.314 313.024 20.9651 315.229 20.9651C317.203 20.9651 318.866 21.1977 320.22 21.6628C321.575 22.0891 322.697 22.6512 323.587 23.3488C324.477 24.0465 325.154 24.8605 325.618 25.7907C326.121 26.6822 326.469 27.593 326.663 28.5233C326.895 29.4535 327.03 30.3643 327.069 31.2558C327.108 32.1085 327.127 32.8643 327.127 33.5233V49.5698H320.859V45.7326ZM320.453 37.0698H319.002C318.034 37.0698 316.951 37.1085 315.752 37.186C314.552 37.2636 313.411 37.4574 312.327 37.7674C311.283 38.0388 310.393 38.4651 309.658 39.0465C308.923 39.5891 308.555 40.3643 308.555 41.3721C308.555 42.031 308.69 42.593 308.961 43.0581C309.271 43.4845 309.658 43.8527 310.122 44.1628C310.586 44.4729 311.109 44.7054 311.689 44.8605C312.269 44.9767 312.85 45.0349 313.43 45.0349C315.829 45.0349 317.589 44.4729 318.712 43.3488C319.872 42.186 320.453 40.6163 320.453 38.6395V37.0698Z" fill="#11123F"/>
<path d="M329.629 27.593V21.6628H335.375V13.5814H342.339V21.6628H350V27.593H342.339V39.8023C342.339 41.1977 342.591 42.3023 343.094 43.1163C343.635 43.9302 344.68 44.3372 346.228 44.3372C346.847 44.3372 347.524 44.2791 348.259 44.1628C348.994 44.0078 349.574 43.7752 350 43.4651V49.3372C349.265 49.686 348.356 49.9186 347.272 50.0349C346.228 50.1899 345.299 50.2674 344.486 50.2674C342.629 50.2674 341.101 50.0543 339.902 49.6279C338.741 49.2403 337.812 48.6395 337.116 47.8256C336.458 46.9729 335.994 45.9264 335.723 44.686C335.491 43.4457 335.375 42.0116 335.375 40.3837V27.593H329.629Z" fill="#11123F"/>
</svg>
