<svg width="972" height="1024" viewBox="0 0 972 1024" fill="none" xmlns="http://www.w3.org/2000/svg">
<g filter="url(#filter0_d_424_1885)">
<path d="M397.248 174.233C383.313 117.654 426.139 63 484.409 63C542.679 63 585.505 117.654 571.57 174.233L522.435 373.728C518.792 388.517 525.725 403.88 539.223 410.934C552.046 417.636 567.737 415.22 577.951 404.972L714.022 268.441C756.922 225.397 829.058 235.183 858.939 288.102C887.42 338.542 862.623 402.429 807.571 420.447L620.982 481.513C607.849 485.811 598.966 498.064 598.966 511.883C598.966 525.814 607.992 538.14 621.273 542.346L808.143 601.532C862.805 618.845 887.829 681.951 859.885 732.02C830.942 783.876 760.763 794.317 717.98 753.13L578.107 618.48C567.758 608.517 552.197 606.285 539.465 612.939C525.825 620.068 518.819 635.593 522.5 650.537L572.085 851.859C585.758 907.374 543.738 961 486.564 961C430.041 961 388.148 908.514 400.679 853.397L446.887 650.156C450.246 635.378 443.229 620.191 429.797 613.172C416.853 606.407 401.014 608.843 390.7 619.185L257.589 752.671C214.879 795.501 143.088 785.751 113.349 733.081C84.8211 682.559 110.003 618.589 165.315 601.07L350.838 542.311C364.053 538.126 373.033 525.862 373.033 512C373.033 498.138 364.053 485.874 350.838 481.689L163.484 422.35C109.014 405.098 84.0791 342.214 111.925 292.322C140.886 240.431 211.221 230.206 253.759 271.701L390.759 405.345C401.066 415.399 416.668 417.689 429.43 411.02C443.025 403.916 450.007 388.442 446.339 373.548L397.248 174.233Z" fill="url(#paint0_linear_424_1885)"/>
</g>
<defs>
<filter id="filter0_d_424_1885" x="0.437988" y="-13" width="970.974" height="1098" filterUnits="userSpaceOnUse" color-interpolation-filters="sRGB">
<feFlood flood-opacity="0" result="BackgroundImageFix"/>
<feColorMatrix in="SourceAlpha" type="matrix" values="0 0 0 0 0 0 0 0 0 0 0 0 0 0 0 0 0 0 127 0" result="hardAlpha"/>
<feOffset dy="24"/>
<feGaussianBlur stdDeviation="50"/>
<feComposite in2="hardAlpha" operator="out"/>
<feColorMatrix type="matrix" values="0 0 0 0 0 0 0 0 0 0 0 0 0 0 0 0 0 0 0.25 0"/>
<feBlend mode="normal" in2="BackgroundImageFix" result="effect1_dropShadow_424_1885"/>
<feBlend mode="normal" in="SourceGraphic" in2="effect1_dropShadow_424_1885" result="shape"/>
</filter>
<linearGradient id="paint0_linear_424_1885" x1="249" y1="121" x2="714.5" y2="934" gradientUnits="userSpaceOnUse">
<stop/>
<stop offset="1" stop-color="#3F3B2D"/>
</linearGradient>
</defs>
</svg>
